<svg width="1000" height="1000" viewBox="0 0 1000 1000" fill="none" xmlns="http://www.w3.org/2000/svg">
<path d="M648 500C648 554.874 618.137 602.772 573.775 628.33C566.154 614.641 561.012 601.009 558.61 588.628L558.596 588.562C557.567 583.98 556.558 579.483 546.807 580.048L460.326 584.473C460.326 584.473 450.741 584.088 451.005 592.398C451.199 600.44 452.56 618.511 457.062 641.675C396.263 623.273 352 566.806 352 500C352 418.262 418.262 352 500 352C581.738 352 648 418.262 648 500Z" fill="#25A75D"/>
<path fill-rule="evenodd" clip-rule="evenodd" d="M861 500C861 300.625 699.375 139 500 139C300.625 139 139 300.625 139 500C139 699.375 300.625 861 500 861C528.872 861 556.953 857.61 583.866 851.208C585.964 852.213 588.295 853.286 590.453 854.236C608.905 862.964 632.826 868.615 657.477 872.347C682.423 876.123 709.073 878.07 733.38 878.961C757.716 879.852 779.911 879.694 796.018 879.214C804.065 878.975 810.665 878.653 815.304 878.333C817.59 878.176 819.557 878.009 821.034 877.835C821.7 877.756 822.63 877.635 823.538 877.445L823.55 877.443C823.872 877.376 824.986 877.143 826.257 876.627L826.274 876.62C826.743 876.429 828.63 875.663 830.504 873.95C831.515 873.025 833.285 871.139 834.314 868.141C834.339 868.067 834.364 867.993 834.388 867.918L902.836 677.695L873.98 689.171C872.77 689.546 871.57 689.95 870.369 690.355L870.363 690.357L870.36 690.358C868.828 690.874 867.295 691.391 865.741 691.846C859.797 693.587 850.596 695.979 837.978 698.417C827.447 700.451 814.53 702.519 799.135 704.268L797.571 704.442C838.8 644.535 861 572.71 861 500ZM787.828 719.51C823.141 716.216 847.737 711.099 862.434 707.278C873.698 704.35 879.146 702.183 879.146 702.183L821.07 863.58C821.074 863.588 821.073 863.596 821.069 863.603C821.061 863.619 821.038 863.635 821 863.651C820.948 863.674 820.869 863.697 820.763 863.722C819.533 864.007 814.679 864.416 807.123 864.779L806.226 864.822C767.473 866.617 662.333 867.125 605.384 845.377L605.302 845.402L605.299 845.401L605.382 845.376C602.186 844.156 599.142 842.865 596.27 841.501C554.695 823.234 524.885 793.725 503.555 761.18C502.372 761.195 501.187 761.203 500 761.203C355.741 761.203 238.797 644.259 238.797 500C238.797 355.741 355.741 238.797 500 238.797C644.259 238.797 761.203 355.741 761.203 500C761.203 584.558 721.024 659.731 658.716 707.469C677.132 715.973 697.678 721.548 720.04 722.768C744.237 722.584 765.512 721.474 783.974 719.858L786.583 719.769L787.828 719.51Z" fill="#25A75D"/>
</svg>
